<svg width="24" height="24" viewBox="0 0 24 24" fill="none" xmlns="http://www.w3.org/2000/svg">
<circle cx="12" cy="12" r="12" fill="#787878"/>
<path d="M19.1317 6.75633C18.892 6.71401 18.6662 6.88834 18.6268 7.1456L18.368 8.83799C17.5095 8.41017 16.5165 8.53003 15.7318 9.20434C15.0987 9.74841 14.2479 9.74837 13.6149 9.20434C13.1444 8.8001 12.5936 8.58639 12.022 8.58639C11.4504 8.58639 10.8995 8.80007 10.4291 9.20434C9.79598 9.74841 8.94526 9.74837 8.31222 9.20434C7.51059 8.51553 6.50231 8.40378 5.63507 8.85784L5.37321 7.1456C5.33387 6.88837 5.10805 6.71407 4.86834 6.75633C4.62878 6.79859 4.46653 7.04138 4.50588 7.29863L6.00125 17.0769C6.00166 17.0795 6.00207 17.0822 6.00254 17.0848C6.19262 18.2078 7.10179 19.0227 8.16435 19.0227H15.8357C16.8982 19.0227 17.8074 18.2077 17.9975 17.0848C17.9979 17.0822 17.9983 17.0795 17.9988 17.0769L19.4941 7.29863C19.5335 7.04138 19.3712 6.79859 19.1317 6.75633ZM17.1321 16.9196C17.0167 17.5915 16.472 18.0787 15.8356 18.0787H8.16432C7.52794 18.0787 6.98328 17.5915 6.86785 16.9196L5.78709 9.85241C6.40484 9.39567 7.159 9.42245 7.76305 9.94153C8.72592 10.7689 10.0179 10.7666 10.9781 9.94153C11.6122 9.39665 12.4316 9.39665 13.0657 9.94153C14.0286 10.7689 15.3205 10.7666 16.2808 9.94153C16.8692 9.43592 17.6072 9.3986 18.2171 9.82431L17.1321 16.9196Z" fill="white" stroke="white"/>
</svg>
