<svg width="24" height="24" viewBox="0 0 24 24" fill="none" xmlns="http://www.w3.org/2000/svg">
<circle cx="12" cy="12" r="12" fill="#EB5757"/>
<path d="M9 8.65385V7.61538C9 6.78913 9.31607 5.99672 9.87868 5.41248C10.4413 4.82823 11.2044 4.5 12 4.5C12.7956 4.5 13.5587 4.82823 14.1213 5.41248C14.6839 5.99672 15 6.78913 15 7.61538V8.65385M6.5 8.65385C6.36739 8.65385 6.24021 8.70855 6.14645 8.80593C6.05268 8.9033 6 9.03537 6 9.17308V16.1827C6 17.164 6.805 18 7.75 18H16.25C17.195 18 18 17.2046 18 16.2233V9.17308C18 9.03537 17.9473 8.9033 17.8536 8.80593C17.7598 8.70855 17.6326 8.65385 17.5 8.65385H6.5Z" stroke="white" stroke-width="2" stroke-linecap="round" stroke-linejoin="round"/>
</svg>
